<svg xmlns="http://www.w3.org/2000/svg" width="58.22" height="62.19" viewBox="426.08 455.195 58.217 62.194" enable-background="new 426.08 455.195 58.217 62.194"><g fill="#1b5b55"><path d="m447.51 462.19c2.992-2.591 5.11-4.424 7.615-6.594 2.412 2.058 4.662 3.977 7.454 6.359-6.654 3.58-5.938 8.989-4.473 14.708 2.787 10.879 1.497 21.425-2.984 32.452-4.02-10.885-5.727-21.12-2.947-31.952 1.382-5.384 3.224-11.325-4.665-14.973"/><path d="m426.45 475.35c5.764-4.799 10.989-9.15 16.462-13.707.53 1.345.826 1.975.781 2-7.01 3.957-6.843 9.33-4.291 16.218 4.435 11.967 7.99 24.26 11.02 36.841-7.866-13.568-15.733-27.14-23.975-41.35"/><path d="m483.93 475.32c-8.324 14.312-16.839 27.763-24.776 41.41 3.809-11.968 7.24-24.15 11.304-36.03 2.303-6.733 5.075-13.167-4.79-17.228.727-.507 1.454-1.014 2.181-1.521 5.222 4.344 10.445 8.687 16.08 13.374"/></g></svg>