<svg xmlns="http://www.w3.org/2000/svg" viewBox="0 0 595.28 841.89" enable-background="new 0 0 595.28 841.89"><path d="m205.97 504.06c0-74.59 0-149.12 0-223.81 22.933 0 45.705 0 68.836 0 0 41.1 0 82.06 0 123.88 1.371-1.469 2.173-2.287 2.93-3.145 34.917-39.544 69.837-79.08 104.71-118.66 1.358-1.54 2.69-2.301 4.826-2.299 66.68.059 133.35.051 200.03.053 1.19 0 2.38 0 3.833 0 0 18.232 0 36.26 0 54.682-1.241 0-2.409 0-3.578 0-16.519 0-33.04 0-49.556-.002-5.933-.001-5.933-.004-5.933 5.777-.001 53.16-.001 106.32-.002 159.48 0 1.288 0 2.577 0 4.172-1.316.059-2.381.147-3.447.147-20.724.008-41.45-.055-62.17.074-2.891.018-3.428-.95-3.425-3.586.067-53.861.048-107.72.047-161.58 0-1.371 0-2.742 0-4.322-1.361-.065-2.34-.153-3.318-.153-16.12-.01-32.24-.048-48.35.058-1.412.009-3.276.572-4.159 1.565-20.16 22.657-40.22 45.41-60.29 68.15-.193.219-.324.493-.655 1.01 28.689 32.691 57.42 65.43 86.55 98.63-1.676.082-2.64.171-3.605.171-21.22.006-42.45-.041-63.67.06-2.364.011-3.863-.791-5.365-2.484-27.435-30.926-54.917-61.811-82.39-92.7-.784-.881-1.596-1.736-2.848-3.095 0 32.965 0 65.32 0 97.94-23.15-.002-45.992-.002-68.995-.002"/><path d="m298.93 755.64c-86.55-73.75-172.96-147.37-260-221.55 1.799 0 2.758 0 3.717 0 38.437 0 76.874.024 115.31-.06 2.45-.005 4.115.943 5.835 2.416 43.1 36.904 86.23 73.78 129.35 110.66 1.205 1.03 2.438 2.028 3.843 3.195 4.838-4.107 9.562-8.095 14.262-12.11 39.79-34 79.56-68.02 119.41-101.96 1.315-1.12 3.305-2.047 4.984-2.052 39.738-.114 79.48-.089 119.21-.084.859 0 1.718.075 3.252.147-86.66 74.03-172.83 147.64-259.17 221.39"/><path d="m296.87 132.61c-6.891 5.877-13.664 11.639-20.422 17.419-37.881 32.399-75.75 64.812-113.68 97.15-1.095.933-2.838 1.562-4.281 1.565-38.644.081-77.29.061-115.93.051-.787 0-1.574-.093-2.361-.143-.35-.391-.7-.782-1.05-1.173.895-.394 1.948-.602 2.661-1.209 37.736-32.1 75.44-64.25 113.16-96.38 42.969-36.612 85.942-73.22 128.91-109.83 4.343-3.7 8.723-7.357 13-11.128 1.41-1.242 2.322-1.54 3.976-.125 59.09 50.569 118.23 101.08 177.36 151.59 25.496 21.777 51.01 43.537 76.51 65.31.879.751 1.721 1.546 3.098 2.787-1.554.143-2.392.287-3.23.288-39.545.012-79.09.036-118.63-.068-1.694-.004-3.729-.803-5.03-1.909-43.899-37.37-87.73-74.831-131.57-112.27-.747-.638-1.552-1.207-2.483-1.926"/><path d="m71.925 364.87c29.818 0 59.21 0 88.996 0 0 1.314 0 2.285 0 3.256 0 16.02-.081 32.04.074 48.05.029 2.949-1.062 3.419-3.626 3.412-27.13-.071-54.26-.046-81.39-.047-1.184 0-2.368 0-3.8 0 0 10.04 0 19.792 0 30.01 29.412 0 58.863 0 88.53 0 0 18.426 0 36.39 0 54.786-1.191 0-2.257 0-3.324 0-50.35 0-100.71-.026-151.06.065-2.88.005-3.432-.931-3.43-3.577.062-72.48.061-144.96-.009-217.44-.003-2.611.642-3.377 3.331-3.372 50.45.082 100.91.078 151.37.004 2.597-.004 3.424.619 3.402 3.318-.125 16.02-.139 32.04.006 48.05.026 2.902-.984 3.426-3.601 3.418-27.23-.082-54.46-.002-81.69-.116-3.01-.013-3.93.716-3.849 3.812.224 8.586.077 17.18.077 26.369"/></svg>