<?xml version="1.0" encoding="utf-8"?>
<!-- Generator: Adobe Illustrator 17.0.0, SVG Export Plug-In . SVG Version: 6.00 Build 0)  -->
<!DOCTYPE svg PUBLIC "-//W3C//DTD SVG 1.1//EN" "http://www.w3.org/Graphics/SVG/1.1/DTD/svg11.dtd" [
	<!ENTITY ns_flows "http://ns.adobe.com/Flows/1.0/">
	<!ENTITY ns_extend "http://ns.adobe.com/Extensibility/1.0/">
	<!ENTITY ns_ai "http://ns.adobe.com/AdobeIllustrator/10.0/">
	<!ENTITY ns_graphs "http://ns.adobe.com/Graphs/1.0/">
]>
<svg version="1.1" xmlns:x="&ns_extend;" xmlns:i="&ns_ai;" xmlns:graph="&ns_graphs;"
	 xmlns="http://www.w3.org/2000/svg" xmlns:xlink="http://www.w3.org/1999/xlink" xmlns:a="http://ns.adobe.com/AdobeSVGViewerExtensions/3.0/"
	 x="0px" y="0px" width="182.982px" height="65.936px" viewBox="0 0 182.982 65.936" enable-background="new 0 0 182.982 65.936"
	 xml:space="preserve">
<g id="Слой_1">
	<rect x="0" y="0" width="65.936" height="65.936"/>
</g>
<g id="Слой_2">
	<g>
		<path fill="#FFFFFF" d="M31.36,44.394h-2.004L17.28,22.597v21.797h-2.021V18.801h2.021l12.094,21.832V18.801h1.986V44.394z"/>
		<path fill="#FFFFFF" d="M37.442,44.394V18.801h6.486c2.309,0,4.058,0.565,5.247,1.695c1.189,1.13,1.784,2.796,1.784,4.998
			c0,1.312-0.305,2.454-0.914,3.426c-0.609,0.972-1.453,1.674-2.531,2.108c1.242,0.316,2.247,1.041,3.015,2.172
			c0.768,1.131,1.151,2.459,1.151,3.983c0,2.228-0.609,3.986-1.828,5.276c-1.219,1.289-2.947,1.935-5.186,1.935H37.442z
			 M39.446,30.261h4.658c1.523,0,2.707-0.404,3.551-1.213s1.266-2.01,1.266-3.604c0-1.629-0.413-2.827-1.239-3.595
			s-2.077-1.151-3.753-1.151h-4.482V30.261z M39.446,32.09v10.441h5.309c1.523,0,2.725-0.469,3.604-1.408
			c0.879-0.939,1.318-2.242,1.318-3.91c0-1.549-0.407-2.782-1.222-3.697s-1.948-1.391-3.401-1.426H39.446z"/>
	</g>
	<g>
		<path d="M88.667,40.859h-1.503l-9.057-16.348v16.348h-1.516V21.663h1.516l9.07,16.374V21.663h1.49V40.859z"/>
		<path d="M92.359,33.001c0-2.057,0.465-3.683,1.396-4.878c0.932-1.195,2.201-1.793,3.811-1.793c1.617,0,2.889,0.589,3.816,1.767
			s1.395,2.799,1.404,4.865v1.516c0,2.092-0.469,3.722-1.404,4.891s-2.199,1.753-3.791,1.753c-1.59,0-2.852-0.571-3.783-1.714
			c-0.931-1.143-1.414-2.716-1.449-4.72V33.001z M93.835,34.47c0,1.642,0.332,2.933,0.994,3.872
			c0.664,0.939,1.584,1.409,2.762,1.409c1.205,0,2.125-0.452,2.764-1.356c0.637-0.904,0.959-2.199,0.969-3.885v-1.515
			c0-1.642-0.334-2.934-1.002-3.878s-1.588-1.416-2.756-1.416c-1.135,0-2.035,0.461-2.703,1.383s-1.01,2.19-1.027,3.806V34.47z"/>
		<path d="M108.363,22.955v3.639h2.439v1.318h-2.439v9.479c0,0.782,0.117,1.365,0.35,1.747c0.233,0.383,0.622,0.574,1.167,0.574
			c0.237,0,0.589-0.044,1.055-0.132l0.04,1.318c-0.335,0.149-0.813,0.224-1.438,0.224c-1.714,0-2.593-1.178-2.637-3.533v-9.677
			h-2.201v-1.318h2.201v-3.639H108.363z"/>
		<path d="M121.534,40.859c-0.132-0.457-0.22-1.116-0.264-1.978c-0.439,0.712-1.004,1.264-1.694,1.654
			c-0.689,0.391-1.439,0.587-2.247,0.587c-1.231,0-2.189-0.347-2.875-1.042s-1.027-1.683-1.027-2.966
			c0-1.397,0.477-2.505,1.43-3.322c0.954-0.817,2.27-1.23,3.949-1.239h2.451v-1.991c0-1.02-0.252-1.751-0.758-2.195
			c-0.505-0.444-1.246-0.666-2.221-0.666c-0.906,0-1.648,0.264-2.229,0.791s-0.87,1.208-0.87,2.043l-1.464-0.013
			c0-1.169,0.439-2.16,1.318-2.973s1.982-1.22,3.31-1.22c1.433,0,2.519,0.36,3.257,1.081s1.107,1.771,1.107,3.151v7
			c0,1.397,0.127,2.443,0.382,3.138v0.158H121.534z M117.512,39.712c0.861,0,1.624-0.224,2.288-0.672
			c0.663-0.448,1.148-1.046,1.456-1.793v-3.467h-2.32c-1.336,0.018-2.342,0.314-3.019,0.89s-1.015,1.351-1.015,2.327
			C114.903,38.806,115.772,39.712,117.512,39.712z"/>
		<path d="M133.083,40.859V21.663h4.865c1.73,0,3.043,0.424,3.935,1.271c0.893,0.848,1.339,2.097,1.339,3.749
			c0,0.984-0.229,1.84-0.686,2.569c-0.458,0.729-1.091,1.256-1.898,1.581c0.931,0.237,1.685,0.78,2.261,1.629
			c0.575,0.849,0.863,1.845,0.863,2.988c0,1.671-0.457,2.99-1.371,3.957s-2.211,1.451-3.89,1.451H133.083z M134.585,30.259h3.493
			c1.143,0,2.031-0.303,2.664-0.91s0.949-1.507,0.949-2.703c0-1.222-0.311-2.12-0.93-2.696c-0.62-0.575-1.559-0.863-2.814-0.863
			h-3.362V30.259z M134.585,31.63v7.831h3.981c1.143,0,2.043-0.352,2.703-1.056c0.658-0.705,0.988-1.682,0.988-2.932
			c0-1.162-0.306-2.086-0.916-2.773c-0.611-0.687-1.462-1.043-2.551-1.07H134.585z"/>
		<path d="M151.935,41.122c-1.68,0-2.993-0.549-3.942-1.648s-1.433-2.663-1.45-4.693v-1.74c0-2.092,0.457-3.733,1.371-4.924
			c0.914-1.19,2.171-1.786,3.771-1.786c1.547,0,2.727,0.505,3.54,1.516c0.812,1.011,1.228,2.558,1.246,4.641v1.371h-8.478v0.804
			c0,1.635,0.35,2.896,1.048,3.784c0.699,0.888,1.686,1.332,2.96,1.332c1.406,0,2.544-0.514,3.415-1.542l0.764,0.976
			C155.248,40.485,153.834,41.122,151.935,41.122z M151.684,27.701c-1.151,0-2.037,0.407-2.656,1.22
			c-0.62,0.813-0.961,2.001-1.022,3.566h7.001v-0.382C154.936,29.169,153.829,27.701,151.684,27.701z"/>
		<path d="M160.979,26.594l0.04,2.268c0.422-0.773,0.96-1.389,1.614-1.846c0.655-0.457,1.399-0.686,2.235-0.686
			c2.486,0,3.761,1.657,3.822,4.97v9.558h-1.449v-9.4c-0.01-1.274-0.233-2.215-0.673-2.821s-1.13-0.91-2.069-0.91
			c-0.766,0-1.453,0.288-2.063,0.863c-0.611,0.576-1.075,1.365-1.392,2.367v9.901h-1.463V26.594H160.979z"/>
		<path d="M177.288,41.122c-1.68,0-2.993-0.549-3.942-1.648s-1.433-2.663-1.45-4.693v-1.74c0-2.092,0.457-3.733,1.371-4.924
			c0.914-1.19,2.171-1.786,3.771-1.786c1.547,0,2.727,0.505,3.54,1.516c0.812,1.011,1.228,2.558,1.246,4.641v1.371h-8.478v0.804
			c0,1.635,0.35,2.896,1.048,3.784c0.699,0.888,1.686,1.332,2.96,1.332c1.406,0,2.544-0.514,3.415-1.542l0.764,0.976
			C180.6,40.485,179.186,41.122,177.288,41.122z M177.037,27.701c-1.151,0-2.037,0.407-2.656,1.22
			c-0.62,0.813-0.961,2.001-1.022,3.566h7.001v-0.382C180.289,29.169,179.181,27.701,177.037,27.701z"/>
	</g>
	<g>
	</g>
	<g>
	</g>
	<g>
	</g>
	<g>
	</g>
	<g>
	</g>
	<g>
	</g>
</g>
</svg>
