<svg xmlns="http://www.w3.org/2000/svg" height="254.99" viewBox="0 0 841.89 254.987" enable-background="new 0 0 841.89 254.987"><path d="m3.832 233.24c1.115-.234 2.221-.613 3.345-.674 3.489-.191 6.984-.266 10.476-.38 7.278-.237 14.557-.467 21.835-.707 3.2-.106 6.399-.263 9.599-.341 5.777-.142 11.555-.234 17.333-.362 4.723-.105 9.446-.252 14.169-.343 7.07-.136 14.13-.24 21.2-.357 7.125-.118 14.25-.243 21.376-.349 8.531-.127 17.06-.243 25.594-.352 9.645-.124 19.289-.246 28.934-.35 11.871-.128 23.742-.247 35.614-.352 14.625-.128 29.25-.256 43.875-.35 21.07-.135 42.14-.298 63.21-.345 65.66-.147 131.31-.282 196.97-.341 21.13-.019 42.26.2 63.39.335 14.684.094 29.367.221 44.05.35 11.813.104 23.625.224 35.438.351 9.703.105 19.407.226 29.11.351 8.473.109 16.946.226 25.419.352 7.243.107 14.485.228 21.728.351 6.481.11 12.962.226 19.442.352 5.544.108 11.09.226 16.63.352 4.782.108 9.563.227 14.345.351 4.255.11 8.509.227 12.763.352 3.669.108 7.338.213 11 .354 5.638.217 11.277.427 16.913.714 2.828.144 5.653.402 8.465.735.492.058 1.214.707 1.279 1.162.072.502-.433 1.138-.804 1.627-.167.22-.616.296-.944.313-2.671.138-5.343.266-8.02.362-6.868.246-13.736.467-20.604.713-2.615.094-5.227.27-7.842.337-5.718.145-11.438.238-17.16.362-5.075.11-10.149.242-15.224.347-6.188.128-12.376.234-18.564.356-5.719.112-11.438.256-17.16.345-8.883.137-17.766.241-26.649.357-9 .118-18 .244-27 .349-10.875.127-21.75.246-32.625.352-13.04.127-26.09.251-39.13.35-17.379.132-34.757.271-52.14.348-32.03.142-64.05.229-96.08.363-22.886.096-45.773.335-68.66.322-32.612-.018-65.22-.191-97.84-.334-17.14-.075-34.29-.217-51.43-.347-13.336-.101-26.672-.223-40.01-.351-10.817-.104-21.633-.225-32.45-.351-9.176-.107-18.352-.226-27.528-.352-7.829-.107-15.657-.227-23.485-.351-6.95-.11-13.899-.226-20.849-.352-5.895-.107-11.79-.228-17.685-.351-5.251-.11-10.501-.227-15.751-.352-4.606-.109-9.212-.225-13.818-.352-3.845-.106-7.689-.217-11.533-.353-6.283-.222-12.566-.435-18.846-.711-4-.176-7.996-.433-11.99-.719-.581-.041-1.136-.442-1.703-.676-.001-.704-.001-1.407-.001-2.11"/><path d="m353.65 9.981c.969.233 2 .332 2.884.747.557.262 1.358 1.196 1.236 1.475-.287.66-1.01 1.498-1.644 1.577-3.838.481-7.732.565-11.545 1.169-6 .951-11.657 2.913-16.532 6.737-8.03 6.299-12.177 14.832-14.12 24.601-1.151 5.806-1.634 11.683-1.363 17.802 6.05 0 12.05 0 18.13 0 0 5.208 0 10.223 0 15.432-6.096 0-12.21 0-18.51 0 0 31.381 0 62.57 0 93.85-6.141 0-12.09 0-18.236 0 0-31.17 0-62.36 0-93.74-5.947 0-11.709 0-17.563 0 0-5.207 0-10.223 0-15.508.767 0 1.558 0 2.349 0 4.57 0 9.14-.048 13.709.028 1.4.023 1.75-.435 1.815-1.81.573-12.12 4.03-23.24 11.607-32.902 6.73-8.587 15.393-14.242 25.916-16.978 3.594-.935 7.298-1.45 10.948-2.171.136-.027.243-.203.363-.31 3.515.002 7.03.002 10.547.002"/><path d="m381.08 9.981c0 54.41 0 108.82 0 163.36-6.081 0-12.07 0-18.282 0 0-54.45 0-108.91 0-163.36 6.094 0 12.188 0 18.282 0"/><path d="m247.13 9.981c1.429.775 2.939 1.432 4.271 2.348 4.061 2.791 4.922 7.702 3.777 12.375-.946 3.861-5.133 7.02-9.275 7.448-6.157.631-10.545-2.527-12.05-7.477-1.799-5.922.676-12.691 7.812-14.43.08-.019.127-.173.19-.263 1.758-.001 3.516-.001 5.274-.001"/><path d="m633.87 173.38c-6.084 0-11.92 0-17.931 0 0-.767 0-1.453 0-2.14 0-20.859.112-41.718-.063-62.58-.058-6.952-.659-13.95-3.838-20.358-2.609-5.259-6.818-8.725-12.626-9.69-6.204-1.031-11.969.492-17.09 4.195-5.665 4.094-8.509 9.9-9.578 16.594-.627 3.926-1.032 7.931-1.053 11.903-.104 19.921-.047 39.842-.047 59.763 0 .702 0 1.404 0 2.249-6.05 0-12.04 0-18.16 0 0-36.19 0-72.41 0-108.75 5.97 0 11.924 0 18.04 0 0 3.786 0 7.623 0 11.459 7.586-9.612 16.971-14.633 29.501-13.774 12.449.853 21.255 6.857 27.348 17.11 2.41-2.788 4.702-5.736 7.303-8.38 4.237-4.307 9.596-6.681 15.43-7.876 3.036-.622 6.179-1.098 9.263-1.039 8.533.163 16.465 2.491 23.15 7.986 5.344 4.39 8.715 10.141 10.07 16.917.742 3.714 1.361 7.523 1.395 11.295.228 24.877.282 49.756.389 74.64 0 .108-.058.217-.121.438-5.848 0-11.725 0-17.787 0 0-.727 0-1.413 0-2.098 0-21.562.111-43.12-.072-64.69-.051-5.951-.477-11.942-2.934-17.605-2.22-5.116-5.822-8.549-11.152-9.907-5.364-1.367-10.759-1.029-15.827 1.306-5.563 2.562-8.828 7.196-10.813 12.853-1.358 3.87-2.28 7.82-2.451 11.931-.106 2.555-.328 5.109-.332 7.664-.028 19.511-.015 39.02-.015 58.53 0 .634 0 1.27 0 2.038"/><path d="m497.77 80.36c0-5.427 0-10.545 0-15.773 6.03 0 11.908 0 17.875 0 0 36.24 0 72.43 0 108.75-5.867 0-11.745 0-17.762 0 0-5.122 0-10.254 0-15.386-.117-.062-.234-.125-.352-.188-.511.621-.997 1.265-1.538 1.859-6.212 6.815-13.394 12.214-22.423 14.651-3.195.862-6.551 1.129-9.835 1.655-6 .96-11.881-.067-17.654-1.461-7.07-1.707-13.33-5.093-18.893-9.859-5.716-4.898-9.988-10.843-13.218-17.542-2.825-5.858-4.825-12.04-5.429-18.544-.45-4.854-.952-9.772-.656-14.614.732-11.991 4.343-23.05 11.805-32.693 6.961-8.995 15.943-14.856 26.975-17.465 3.227-.763 6.591-.959 9.897-1.38 6.05-.771 11.947.171 17.756 1.759 8.323 2.275 14.995 7.179 20.834 13.353.432.457.749 1.022 1.168 1.494.371.419.808.779 1.45 1.387m-71.48 38.2c.173 2.608.099 5.262.569 7.816 1.01 5.474 2.624 10.76 5.468 15.633 2.476 4.243 5.408 8.08 9.39 10.969 9.154 6.64 19.376 8.346 30.19 5.588 9.431-2.405 16.514-8.195 21.14-16.775 5.05-9.371 6.75-19.448 5.406-29.959-.92-7.194-3.31-13.928-7.768-19.77-4.046-5.302-9.144-9.218-15.485-11.45-4.872-1.715-9.829-2.435-15.03-2.138-4.566.261-8.897 1.282-12.924 3.265-7.281 3.586-12.607 9.292-16.21 16.495-3.179 6.356-4.974 13.11-4.75 20.326"/><path d="m812.08 137.91c4.416 2.385 8.807 4.753 13.195 7.126 1.018.551.867 1.247.357 2.123-3.788 6.501-8.488 12.202-14.252 17.08-6.664 5.642-14.336 9.04-22.828 10.563-5.789 1.04-11.65 1.025-17.53.455-9.809-.95-18.649-4.379-26.339-10.436-6.673-5.256-11.806-11.873-14.806-19.893-1.656-4.429-3.239-8.965-4.101-13.593-1.159-6.223-1.117-12.572-.556-18.925.556-6.294 1.978-12.325 4.271-18.18 2-5.123 4.804-9.753 8.306-14 4.485-5.441 9.88-9.674 16.228-12.697 5.115-2.436 10.469-4.092 16.15-4.443 3.66-.226 7.356-.57 10.995-.303 7.44.546 14.511 2.47 21.09 6.215 8.576 4.88 14.833 11.875 19.19 20.563 2.861 5.701 4.769 11.796 5.411 18.19.462 4.599.683 9.222 1.026 14.04-28.615 0-56.757 0-85.31 0 .587 3.444 1.033 6.673 1.702 9.855 1.221 5.804 3.657 11.12 7.252 15.812 4.795 6.257 11.126 10.317 18.867 11.9 8.187 1.674 16.205 1.039 23.754-2.789 5.161-2.617 9.142-6.675 12.652-11.184 1.829-2.345 3.439-4.861 5.269-7.475m-2.509-30.28c-1.831-14.319-14.462-31.04-35.08-29.385-17.284 1.386-28.964 16.447-30.06 29.385 21.714 0 43.42 0 65.14 0"/><path d="m72.94 176.87c-9.941-.159-19.338-2.366-28.09-6.988-6.694-3.535-12.5-8.233-17.414-14.07-5.228-6.205-9.05-13.12-11.366-20.874-1.335-4.47-2.058-9.03-2.462-13.707-.731-8.453.786-16.495 3.566-24.385 2.562-7.272 6.374-13.835 11.196-19.85 5.58-6.959 12.307-12.428 20.413-16.17.776-.359 1.627-.562 2.392-.941 1.09-.539 2.247-.491 2.756.514.567 1.118.295 2.381-.915 3.217-2.409 1.664-4.838 3.304-7.19 5.05-5.465 4.05-9.823 9.09-13.13 15.03-2.847 5.105-4.722 10.594-5.6 16.342-1.868 12.224-.767 24.1 5.397 35.07 6.957 12.383 17.206 20.508 31.353 23.23 2.819.543 5.723 1.108 8.563 1 11.126-.419 21.03-3.933 29.11-11.971 6.335-6.304 10.11-13.829 11.676-22.576 1.689-9.405.572-18.404-3.909-26.852-4.246-8-10.567-13.809-18.931-17.489-6.362-2.799-12.979-3.777-19.786-3.252-5.596.432-10.897 2.251-15.753 5.084-4.342 2.533-8.149 5.804-10.779 10.119-1.532 2.513-2.441 5.403-3.656 8.112-.344.767-.621 1.682-1.219 2.182-.498.416-1.489.556-2.131.37-.408-.118-.758-1.037-.825-1.632-.366-3.278.939-6.221 2.097-9.151 2.71-6.859 7.128-12.549 12.622-17.361 5.229-4.579 11.369-7.528 18.16-9.02 7.223-1.583 14.436-1.362 21.664.173 7.256 1.541 13.834 4.553 19.699 9 5.795 4.399 10.491 9.79 14.04 16.224 3.177 5.752 5.242 11.841 6.192 18.277.776 5.26.778 10.553.143 15.89-.88 7.4-3.036 14.342-6.426 20.921-2.115 4.104-4.859 7.773-7.862 11.304-4.693 5.517-10.442 9.589-16.811 12.774-5.652 2.826-11.651 4.781-17.994 5.465-2.93.315-5.862.625-8.794.937"/><path d="m178.92 173.38c-6.204 0-12.155 0-18.19 0 0-36.26 0-72.44 0-108.76 5.957 0 11.95 0 18.11 0 0 3.889 0 7.837 0 12.1 2.336-2.597 4.341-5.04 6.571-7.257 3.796-3.771 8.32-6.348 13.68-7.05 7.392-.97 14.442.146 20.988 4.102-2.703 5.185-5.409 10.375-8.114 15.566-.522 1-1.066.712-1.798.155-2.814-2.142-6.227-3.01-9.553-2.886-7.292.279-13.31 3.266-17.14 9.833-2.634 4.513-3.977 9.438-4.154 14.593-.283 8.229-.348 16.468-.38 24.704-.056 14.291-.015 28.582-.015 42.873.001.634.001 1.268.001 2.032"/><path d="m253.34 173.38c-5.967 0-11.802 0-17.724 0 0-36.26 0-72.45 0-108.77 5.851 0 11.728 0 17.724 0 0 36.19 0 72.41 0 108.77"/></svg>