<svg xmlns="http://www.w3.org/2000/svg" height="243.39" viewBox="-36 87.14 841.89 243.3865" enable-background="new -36 87.14 841.89 243.3865"><g enable-background="new    "><path d="m68.22 124.52c.297.897.56 2.093.784 3.584.224 1.494.336 2.613.336 3.358 0 6.422-.71 11.87-2.127 16.349-1.42 4.48-3.919 8.66-7.502 12.541-2.989 3.286-7.05 6.159-12.206 8.622-5.151 2.464-10.714 3.695-16.684 3.695-3.884 0-7.614-.595-11.197-1.792-3.583-1.193-6.645-2.911-9.182-5.15-5.822-5.074-8.734-11.942-8.734-20.603 0-6.719 2.352-13.398 7.05-20.04 4.703-6.642 11.68-12.503 20.939-17.58 12.09-6.568 25.789-11.01 41.09-13.325 15.302-2.313 31.836-3.471 49.605-3.471 4.479 0 9.591.076 15.34.224 5.746.15 11.344.301 16.796.448 5.448.15 10.375.301 14.781.447 4.402.15 7.502.225 9.294.225 3.583 0 6.456-.074 8.622-.225 2.162-.147 4.03-.297 5.599-.447 1.567-.147 2.911-.298 4.03-.448 1.12-.147 2.352-.224 3.695-.224 2.387 0 4.178.637 5.375 1.903 1.193 1.27 1.792 2.726 1.792 4.367 0 1.196-.224 2.166-.672 2.911-.448.749-1.309 1.309-2.576 1.68-1.27.374-3.061.637-5.375.783-2.316.151-5.34.302-9.07.448-3.884.15-7.727.224-11.534.224s-7.39-.034-10.75-.111c-3.359-.073-6.347-.147-8.958-.225-2.614-.073-4.591-.111-5.935-.111-4.927 0-10.19 1.046-15.788 3.135-5.599 2.093-10.714 5.302-15.34 9.63-2.688 2.541-5.375 5.452-8.06 8.734-2.687 3.285-5.413 7.05-8.174 11.31-2.765 4.255-5.711 9.03-8.846 14.332-3.135 5.302-6.571 11.163-10.301 17.58-15.08 25.978-29.488 45.46-43.22 58.45-13.738 12.989-28.07 19.484-42.998 19.484-6.271 0-11.61-1.421-16.01-4.256-4.406-2.834-6.606-6.27-6.606-10.301 0-2.688.857-4.928 2.575-6.719 1.714-1.792 3.919-2.688 6.606-2.688 2.24 0 4.03.749 5.375 2.239 1.343 1.494 2.02 3.286 2.02 5.375 0 2.093-.56 3.733-1.679 4.927-1.12 1.197-2.576 1.792-4.367 1.792h-.896c.746 2.239 2.352 3.957 4.815 5.15 2.463 1.197 5.634 1.792 9.518 1.792 5.375 0 10.637-1.529 15.788-4.591 5.151-3.059 10.56-7.727 16.236-13.997 3.583-4.03 7.166-8.622 10.749-13.773 3.583-5.151 7.24-10.638 10.974-16.461 3.73-5.822 7.502-11.869 11.309-18.14s7.727-12.614 11.757-19.04c5.074-7.912 10.599-15.677 16.572-23.291 5.97-7.614 12.989-14.183 21.05-19.707 3.433-2.387 6.978-4.44 10.638-6.159 3.656-1.715 7.799-3.17 12.429-4.367v-.672c-5.227-.297-9.818-.52-13.773-.672-3.957-.147-6.383-.224-7.278-.224-9.406 0-18.402.077-26.986.224-8.587.151-16.611.672-24.07 1.568-7.467.895-14.483 2.239-21.05 4.03-6.572 1.791-12.542 4.332-17.916 7.614-6.718 4.03-11.981 8.622-15.789 13.773s-5.71 10.413-5.71 15.788c0 7.317 2.537 13.29 7.614 17.916 2.239 2.093 5.074 3.733 8.51 4.927 3.433 1.197 7.166 1.792 11.198 1.792 5.224 0 10.04-.931 14.444-2.8 4.402-1.865 8.174-4.514 11.31-7.95 2.985-3.135 5.263-6.83 6.831-11.09 1.567-4.255 2.352-9.441 2.352-15.565 0-1.642-.224-3.247-.672-4.815-.448-1.567-.525-2.352-.224-2.352h2.463m108.39 60.24c-5.823 9.707-11.757 18.402-17.804 26.09-6.05 7.691-12.02 14.222-17.916 19.596-5.9 5.375-11.645 9.483-17.244 12.317-5.599 2.834-10.861 4.255-15.789 4.255-5.374 0-9.707-1.83-12.989-5.486-3.286-3.657-4.927-8.769-4.927-15.341 0-6.567 1.753-14.63 5.263-24.19 3.506-9.553 9.144-20.452 16.908-32.696 4.626-7.464 9.07-13.885 13.325-19.26 4.255-5.374 8.286-9.966 12.09-13.773 3.807-3.808 7.425-6.977 10.861-9.518 3.433-2.537 6.719-4.776 9.854-6.719 2.537-1.642 5.04-2.946 7.502-3.919 2.464-.97 4.29-1.456 5.487-1.456 1.939 0 2.912.822 2.912 2.464 0 .749-.301 1.309-.896 1.68-.598.374-1.718.71-3.359 1.01-2.092.301-4.069.598-5.935.895-1.869.301-3.622 1.12-5.263 2.464-1.197.895-2.614 2.092-4.255 3.583-1.644 1.494-3.583 3.548-5.823 6.158-2.239 2.614-4.815 5.861-7.726 9.742-2.912 3.884-6.159 8.66-9.742 14.332-4.182 6.571-7.95 13.29-11.31 20.16-3.359 6.869-6.197 13.476-8.51 19.819-2.316 6.348-4.069 12.282-5.263 17.805-1.197 5.524-1.791 10.227-1.791 14.11 0 4.03.56 7.467 1.68 10.302 1.12 2.838 3.394 4.255 6.831 4.255 3.135 0 7.02-1.267 11.645-3.807 4.626-2.537 9.63-6.306 15-11.31 5.375-5 11.05-11.197 17.02-18.588 5.969-7.391 12.02-16.01 18.14-25.866l2.02.896"/><path d="m234.62 166.4h14.557c-5.525 7.765-10.827 15.306-15.9 22.618-5.077 7.317-9.595 14.07-13.549 20.268-3.958 6.197-7.131 11.645-9.518 16.349-2.39 4.703-3.583 8.398-3.583 11.09 0 3.885 2.02 5.823 6.05 5.823 3.135 0 7.128-1.529 11.981-4.591 4.85-3.059 10.113-7.278 15.789-12.653 5.672-5.375 11.495-11.645 17.468-18.811 5.97-7.167 11.644-14.781 17.02-22.843l1.344.447c-4.03 6.124-8.772 12.731-14.22 19.819-5.452 7.094-11.162 13.7-17.13 19.82-5.973 6.123-11.946 11.235-17.916 15.34-5.973 4.108-11.572 6.159-16.796 6.159-4.332 0-7.502-1.085-9.518-3.248-2.02-2.162-3.02-4.737-3.02-7.726 0-2.089.336-4.144 1.01-6.159s1.379-4.065 2.127-6.158l-.448-.224c-1.942 2.092-4.367 4.518-7.278 7.278-2.911 2.764-6.05 5.34-9.406 7.726-3.359 2.391-6.831 4.406-10.414 6.05-3.583 1.642-7.02 2.464-10.302 2.464-5.525 0-9.406-1.719-11.645-5.151-2.24-3.433-3.359-7.314-3.359-11.645 0-6.12 1.939-12.877 5.823-20.267 3.88-7.391 8.807-14.333 14.78-20.827 5.97-6.495 12.464-11.904 19.484-16.236 7.02-4.329 13.661-6.495 19.931-6.495 2.985 0 5.599.413 7.838 1.232 2.239.822 4.105 1.941 5.599 3.358 1.491 1.421 2.649 3.02 3.471 4.815.819 1.791 1.456 3.66 1.903 5.599h.448l7.39-13.213m-73.23 62.705c0 3.436.707 6.085 2.127 7.95 1.417 1.869 3.394 2.8 5.935 2.8 2.537 0 5.522-.931 8.958-2.8 3.433-1.865 7.02-4.367 10.75-7.502 3.73-3.136 7.425-6.754 11.09-10.861 3.657-4.105 6.904-8.472 9.742-13.1 2.834-4.626 5.151-9.328 6.942-14.11 1.792-4.776 2.688-9.329 2.688-13.661 0-3.433-.973-6.05-2.912-7.838-1.942-1.792-4.332-2.688-7.166-2.688-4.479 0-9.483 1.942-15 5.823-5.525 3.884-10.75 8.846-15.676 14.893-4.927 6.05-9.07 12.73-12.429 20.04-3.359 7.316-5.04 14.333-5.04 21.05"/><path d="m327.55 122.95c-7.915 12.09-16.12 23.963-24.635 35.608-8.51 11.644-16.649 23.591-24.41 35.831l.448.448c2.239-2.985 4.85-6.232 7.838-9.742 2.984-3.506 6.193-6.792 9.63-9.853 3.433-3.059 7.166-5.599 11.197-7.614s8.136-3.02 12.317-3.02c4.776 0 8.808 1.27 12.09 3.808 3.282 2.54 4.927 6.942 4.927 13.213 0 3.884-.524 7.579-1.567 11.09-1.046 3.51-2.429 6.796-4.144 9.855-1.718 3.061-3.66 5.899-5.822 8.51-2.166 2.613-4.367 5.04-6.606 7.278l.448.447c10.749-1.939 20.491-5.599 29.22-10.973 8.734-5.375 17.43-13.438 26.09-24.19l1.791.895c-6.719 8.213-12.989 14.634-18.812 19.26-5.822 4.629-11.197 8.101-16.12 10.413-4.927 2.316-9.483 3.919-13.661 4.815-4.182.895-8.139 1.791-11.869 2.688-2.541 1.941-5.413 4.255-8.622 6.942-3.212 2.688-6.606 5.263-10.19 7.726-3.583 2.464-7.317 4.557-11.197 6.27-3.885 1.715-7.839 2.576-11.87 2.576-2.092 0-4.143-.56-6.158-1.68-2.02-1.12-3.02-2.946-3.02-5.487 0-3.135 1.529-5.745 4.591-7.838 3.059-2.089 6.792-3.769 11.197-5.04 4.402-1.267 8.993-2.239 13.773-2.911 4.776-.672 8.808-1.154 12.09-1.456 1.938-2.239 3.919-4.962 5.935-8.174 2.02-3.209 3.843-6.606 5.487-10.19 1.641-3.583 2.984-7.278 4.03-11.09 1.042-3.807 1.567-7.352 1.567-10.637 0-5.225-.749-8.622-2.239-10.19-1.494-1.567-3.286-2.352-5.375-2.352-3.437 0-7.05 1.232-10.861 3.695-3.808 2.464-7.653 5.676-11.533 9.63-3.885 3.958-7.727 8.363-11.534 13.213-3.807 4.853-7.354 9.669-10.637 14.445-3.286 4.779-6.271 9.22-8.959 13.324-2.687 4.108-4.927 7.356-6.718 9.742-1.344 1.942-3.286 4.779-5.823 8.51-2.537 3.731-5.375 7.985-8.51 12.766-3.135 4.776-6.456 9.927-9.966 15.452-3.506 5.522-6.977 11.08-10.414 16.684-3.433 5.599-6.719 11.01-9.854 16.236-3.135 5.225-5.896 9.928-8.286 14.11h-13.885c20.16-32.399 40.724-64.54 61.698-96.41 20.975-31.874 41.689-64.08 62.15-96.63h14.781m-50.39 119.59c2.239 0 4.738-.746 7.502-2.24 2.761-1.49 5.448-3.282 8.06-5.374 2.61-2.089 4.962-4.179 7.05-6.27 2.089-2.089 3.583-3.657 4.478-4.703l-.448-.448c-2.54.448-5.71.935-9.518 1.456-3.807.524-7.467 1.231-10.974 2.127-3.51.897-6.494 2.128-8.958 3.695-2.463 1.568-3.694 3.695-3.694 6.383 0 1.792.672 3.135 2.02 4.03 1.343.895 2.834 1.344 4.478 1.344"/><path d="m425.64 194.84c2.984-3.731 5.784-7.166 8.397-10.302 2.61-3.135 5.337-5.97 8.175-8.51 8.359-7.614 16.27-11.422 23.738-11.422 5.672 0 10.08 1.344 13.213 4.03 2.984 2.838 4.478 7.093 4.478 12.766 0 6.123-1.42 12.17-4.255 18.14-2.838 5.973-7.467 12.243-13.885 18.811l.448.447c5.672-1.192 10.749-2.575 15.228-4.143 4.478-1.567 8.958-3.769 13.437-6.606 4.179-2.537 8.434-5.672 12.766-9.406 4.328-3.73 8.958-8.733 13.885-15l1.791.895c-5.525 6.719-10.563 12.06-15.12 16.01-4.556 3.957-8.996 7.278-13.325 9.966-2.688 1.644-5.301 3.02-7.838 4.143-2.54 1.12-5.077 2.093-7.614 2.911-2.54.822-5.15 1.567-7.838 2.239s-5.599 1.31-8.734 1.904c-2.988 2.239-6.158 4.741-9.518 7.502-3.359 2.765-6.831 5.34-10.414 7.727-3.583 2.39-7.204 4.366-10.861 5.935-3.66 1.567-7.356 2.352-11.08 2.352-6.124 0-9.183-2.537-9.183-7.614 0-2.537 1.456-4.962 4.367-7.278 2.911-2.314 7.576-4.29 13.997-5.935 2.984-.746 6.494-1.418 10.525-2.02 4.03-.596 8.286-1.12 12.765-1.568 6.12-7.761 10.487-15.15 13.1-22.17 2.61-7.02 3.919-13.66 3.919-19.931 0-3.731-.749-6.418-2.239-8.06-1.494-1.641-3.359-2.464-5.599-2.464-2.988 0-6.159.974-9.519 2.912-3.358 1.941-6.757 4.556-10.19 7.838-3.435 3.286-7.356 7.652-11.757 13.1-4.405 5.452-8.772 11.236-13.1 17.356-4.332 6.123-8.475 12.13-12.429 18.03-3.958 5.9-7.502 11.274-10.638 16.13-3.135 4.85-5.822 8.992-8.06 12.429-2.24 3.433-3.808 5.822-4.703 7.166-1.197 1.792-2.575 3.954-4.144 6.495-1.567 2.537-3.247 5.185-5.04 7.95-1.791 2.761-3.583 5.634-5.374 8.622-1.792 2.984-3.583 5.896-5.375 8.733-4.03 6.719-8.213 13.735-12.541 21.05h-13.885l44.789-70.32c2.387-3.433 5.298-7.537 8.734-12.317 3.433-4.776 6.792-9.328 10.08-13.66l-.672-.448c-4.479 5.375-8.549 9.742-12.205 13.1-3.66 3.358-7.094 5.973-10.302 7.838-3.213 1.868-6.31 3.174-9.294 3.919-2.988.745-6.05 1.12-9.182 1.12-3.734 0-7.205-1.421-10.414-4.256-3.209-2.834-4.815-7.089-4.815-12.765 0-6.27 1.941-12.912 5.822-19.932 3.881-7.02 9.479-14.11 16.796-21.274 3.583-3.434 7.278-6.53 11.09-9.294 3.807-2.761 7.575-5.112 11.309-7.05 3.731-1.939 7.313-3.433 10.75-4.478 3.433-1.043 6.418-1.568 8.958-1.568 4.776 0 8.583 1.421 11.421 4.255 2.835 2.838 4.402 6.348 4.703 10.526h.448l35.607-56.21 15-.448-19.26 28.665c-5.228 6.719-10.267 13.661-15.12 20.827-4.853 7.167-9.742 14.557-14.669 22.17l.449.448m-19.931-27.546c-2.988 0-6.869 1.27-11.646 3.808-4.779 2.54-10 7.02-15.676 13.436-3.734 4.182-7.02 8.475-9.854 12.877-2.838 4.405-5.19 8.66-7.05 12.766-1.869 4.107-3.286 7.949-4.255 11.533-.974 3.583-1.456 6.571-1.456 8.958 0 7.316 3.059 10.973 9.182 10.973 3.433 0 7.313-1.567 11.646-4.702 4.328-3.136 9.255-7.614 14.78-13.438 3.731-3.88 7.09-7.95 10.08-12.205 2.984-4.255 5.56-8.359 7.726-12.317 2.163-3.954 3.843-7.688 5.04-11.197 1.193-3.506 1.792-6.529 1.792-9.07 0-4.329-.896-7.314-2.688-8.958-1.792-1.642-4.332-2.464-7.614-2.464m17.691 75.25c3.136 0 7.05-1.491 11.758-4.48 4.703-2.984 9.966-7.688 15.788-14.11l-.447-.448c-4.03.599-7.95 1.197-11.758 1.792-3.807.599-6.981 1.27-9.518 2.02-4.332 1.196-7.391 2.575-9.181 4.143-1.792 1.567-2.688 3.549-2.688 5.935 0 1.494.595 2.727 1.791 3.695 1.194.973 2.61 1.456 4.255 1.456"/><path d="m529.1 166.4h14.11l-22.17 33.592h24.858c.595-.745 1.192-1.567 1.791-2.463 3.282-4.626 6.904-8.92 10.861-12.877 3.954-3.954 7.8-7.201 11.533-9.742 5.823-3.881 11.09-6.567 15.789-8.06 4.703-1.491 9.217-2.24 13.549-2.24 3.433 0 6.529.599 9.294 1.792 2.761 1.196 5.186 3.436 7.278 6.719.745 1.343 1.344 2.686 1.791 4.03.448 1.344.819 2.541 1.12 3.584.297 1.343.371 2.54.224 3.583 1.043 4.779 3.136 8.212 6.27 10.302 3.136 2.092 6.792 3.135 10.974 3.135 4.626 0 8.808-1.154 12.541-3.471 3.731-2.314 7.313-5.186 10.75-8.622l1.791 1.344c-3.436 3.583-7.356 6.644-11.757 9.182-4.405 2.54-8.997 3.807-13.773 3.807-2.54 0-4.779-.336-6.718-1.01-1.942-.672-3.622-1.528-5.04-2.575-1.421-1.043-2.614-2.089-3.583-3.135-.973-1.043-1.68-1.939-2.128-2.688h-.447c-1.197 4.629-3.808 10.413-7.839 17.356-4.03 6.942-9.332 13.476-15.9 19.596-7.166 6.571-13.996 11.162-20.491 13.773-6.494 2.61-12.356 3.92-17.58 3.92-6.123 0-10.899-1.757-14.332-5.264-3.437-3.506-5.151-8.695-5.151-15.564 0-4.03 1.043-8.36 3.136-12.989 1.193-2.985 2.688-5.897 4.479-8.734h-24.858l-25.978 40.759h-13.885l49.49-77.04m77.935 12.541c0-3.881-.861-6.792-2.575-8.734-1.719-1.939-3.92-2.911-6.606-2.911-3.734 0-7.95 1.383-12.653 4.144-4.703 2.764-9.221 6.606-13.549 11.533-8.661 9.853-14.634 18.738-17.916 26.649-3.286 7.915-4.927 14.634-4.927 20.16 0 4.03.745 7.167 2.239 9.406 1.49 2.239 3.731 3.359 6.719 3.359 1.641 0 3.618-.298 5.935-.897 2.313-.595 4.814-1.68 7.502-3.247s5.599-3.73 8.734-6.494c3.135-2.761 6.344-6.383 9.63-10.861 6.27-8.36 10.749-16.349 13.437-23.963s4.03-13.661 4.03-18.14"/><path d="m773.88 166.4c-4.928 6.719-9.406 12.877-13.438 18.476s-7.765 10.715-11.197 15.341c-7.02 9.706-11.981 17.32-14.893 22.843-2.911 5.524-4.367 9.78-4.367 12.765 0 4.478 2.239 6.719 6.719 6.719 2.834 0 7.166-1.753 12.989-5.263 5.822-3.507 12.988-9.742 21.499-18.7 4.178-4.478 8.656-9.553 13.437-15.228 4.776-5.672 9.703-12.02 14.78-19.04l2.24.672c-10.302 14.332-19.858 26.05-28.666 35.16-5.077 5.228-9.556 9.483-13.437 12.766-3.884 3.285-7.391 5.822-10.525 7.614-3.136 1.791-5.974 3.02-8.511 3.695-2.54.672-4.927 1.01-7.166 1.01-3.919 0-7.104-1.232-9.546-3.695-2.445-2.464-3.667-5.634-3.667-9.518 0-2.09.305-4.144.917-6.159.608-2.02 1.753-4.514 3.426-7.502l-.448-.225c-2.992 3.286-5.983 6.383-8.972 9.294-2.992 2.912-6.06 5.565-9.196 7.95-3.891 2.988-7.778 5.375-11.666 7.167-3.888 1.791-7.775 2.688-11.663 2.688-3.59 0-6.582-1.12-8.976-3.359-2.393-2.239-3.586-5.448-3.586-9.63 0-2.089.482-4.29 1.455-6.606.97-2.314 2.128-4.44 3.472-6.383l-.448-.224c-3.884 4.332-7.467 8.139-10.749 11.421-3.286 3.286-6.422 6.01-9.406 8.175-2.988 2.166-5.899 3.807-8.734 4.927-2.838 1.119-5.675 1.68-8.51 1.68-5.225 0-9.255-1.568-12.09-4.703-1.491-1.642-2.61-3.583-3.359-5.823-.745-2.239-1.12-4.626-1.12-7.166 0-4.03 1.12-7.537 3.359-10.525 2.239-2.985 5-4.48 8.286-4.48 2.537 0 4.44.711 5.711 2.128 1.267 1.421 1.903 3.101 1.903 5.04 0 4.779-2.39 7.166-7.166 7.166-1.043 0-2.051-.259-3.02-.784-.97-.52-1.602-1.305-1.903-2.351-1.193 1.196-1.938 2.39-2.24 3.583-.297 1.196-.447 2.239-.447 3.135 0 1.344.262 2.8.783 4.367.525 1.567 1.309 2.95 2.352 4.144 2.243 2.39 5.158 3.583 8.745 3.583 6.876 0 14.389-3.808 22.534-11.422 8.146-7.614 17.825-19.04 29.04-34.26 3.437-4.48 6.873-9.144 10.313-13.997 3.437-4.85 7.174-10.112 11.211-15.788l15.246-.672c-5.836 7.915-10.963 14.78-15.379 20.603-4.416 5.822-8.271 11.05-11.564 15.676-3.443 4.927-6.326 9.108-8.646 12.541-2.32 3.436-4.153 6.383-5.501 8.847-1.347 2.463-2.319 4.591-2.918 6.382-.599 1.792-.895 3.436-.895 4.927 0 2.093.637 3.66 1.91 4.703 1.273 1.047 2.813 1.567 4.612 1.567 2.998 0 6.225-.895 9.675-2.686 3.45-1.792 7.198-4.402 11.246-7.839 3.45-2.984 7.05-6.456 10.799-10.413 3.748-3.954 7.645-8.321 11.698-13.1 4.776-5.672 9.479-12.05 14.11-19.15 4.626-7.089 9.329-14.444 14.11-22.06h15.453"/><path d="m556.53 280.22v5.449h-21.722v13.511c1.567-.224 4.553-.373 6.195-.373 4.777 0 9.48 1.045 12.988 3.359 3.807 2.463 6.42 6.419 6.42 12.316 0 4.703-1.568 8.285-4.181 10.898-4.106 4.03-10.898 5.599-17.766 5.599-4.554 0-7.987-.299-10.152-.598v-50.16h28.22m-21.722 45.31c1.492.298 3.209.373 5.448.373 4.03 0 8.137-1.269 10.601-3.882 1.717-1.791 2.762-4.255 2.762-7.39 0-3.882-1.643-6.494-4.106-8.211-2.613-1.792-5.972-2.538-9.555-2.538-1.493 0-3.509.149-5.15.299v21.349"/><path d="m575.19 294.4v12.316c1.419-.298 3.509-.447 5.898-.447 7.763 0 15.601 3.21 15.601 12.09 0 3.807-1.418 6.419-3.732 8.36-3.956 3.358-9.778 4.18-14.556 4.18-3.657 0-7.02-.224-9.704-.522v-35.98h6.494m0 31.575c1.269.149 2.688.299 4.554.299 5 0 10.45-2.09 10.45-7.688 0-5.822-5.225-7.614-10.151-7.614-1.866 0-3.509.149-4.852.374v14.63m32.546-31.575v36.13h-6.494v-36.13h6.494"/><path d="m642.67 294.4v5.226h-11.271v30.903h-6.494v-30.903h-11.271v-5.226h29.04"/><path d="m676.71 330.53l-6.42-11.122c-2.612-4.255-4.255-7.02-5.822-9.928h-.149c-1.418 2.911-2.836 5.598-5.449 10l-6.05 11.05h-7.465l15.377-25.454-14.779-24.857h7.539l6.644 11.794c1.866 3.285 3.284 5.822 4.628 8.51h.224c1.419-2.985 2.688-5.3 4.554-8.51l6.867-11.794h7.465l-15.303 24.484 15.676 25.827h-7.539"/><path d="m697.62 294.4v15.228c0 5.747-.075 9.33-.374 14.481l.225.075c2.164-4.404 3.434-6.942 5.822-11.122l11.271-18.662h7.688v36.13h-6.27v-15.303c0-5.897.149-8.957.448-14.779h-.224c-2.314 4.628-3.882 7.539-5.972 11.196-3.435 5.599-7.391 12.541-11.273 18.886h-7.539v-36.13h6.196"/><path d="m733.3 294.4h8.06l6.568 18.214c.895 2.688 2.464 7.092 3.284 9.928h.149c.821-2.688 2.837-8.435 4.255-12.391l5.822-15.751h8.137l2.538 36.13h-6.27l-.821-17.243c-.224-3.882-.523-8.51-.672-12.914h-.224c-.971 3.284-1.94 6.196-3.956 11.72l-6.942 18.214h-4.777l-6.419-17.841c-1.12-3.434-2.688-8.659-3.583-12.02h-.299c-.149 4.255-.373 9.03-.598 12.988l-.895 17.09h-6.05l2.686-36.13"/></g></svg>