<svg xmlns="http://www.w3.org/2000/svg" width="90" height="110" viewBox="0 0 2480 3299.58" enable-background="new 426.08 455.195 58.217 62.194" shape-rendering="geometricPrecision" image-rendering="optimizeQuality" fill-rule="evenodd" clip-rule="evenodd"><g fill="#1b5b55"><path d="m918.33 643.79c125.4-108.59 214.17-185.42 319.17-276.38 101.1 86.26 195.4 166.68 312.42 266.53-278.88 150.05-248.88 376.75-187.48 616.46 116.81 455.98 62.746 897.99-125.07 1360.18-168.49-456.23-240.04-885.42-123.51-1339.22 57.915-225.67 135.13-474.67-195.53-627.57"/><path d="m35.589 1195.4c241.6-201.14 460.59-383.5 689.98-574.5 22.21 56.38 34.612 82.79 32.728 83.83-293.86 165.86-286.81 391.06-179.85 679.75 185.88 501.58 334.88 1016.82 462.01 1544.13-329.7-568.68-659.42-1137.36-1004.88-1733.21z"/><path d="m2444.43 1194.4c-348.89 599.86-705.78 1163.64-1038.44 1735.63 159.65-501.61 303.45-1012.37 473.8-1510.35 96.52-282.2 212.72-551.88-200.77-722.08 30.478-21.243 60.941-42.503 91.42-63.745 218.86 182.06 437.77 364.1 674 560.54z"/></g></svg>