<?xml version="1.0" encoding="UTF-8"?>
<!DOCTYPE svg PUBLIC "-//W3C//DTD SVG 1.1//EN" "http://www.w3.org/Graphics/SVG/1.1/DTD/svg11.dtd">
<!-- Creator: CorelDRAW -->
<svg xmlns="http://www.w3.org/2000/svg" xml:space="preserve" width="90px" height="110px" style="shape-rendering:geometricPrecision; text-rendering:geometricPrecision; image-rendering:optimizeQuality; fill-rule:evenodd; clip-rule:evenodd"
viewBox="0 0 2480 3299.58"
 xmlns:xlink="http://www.w3.org/1999/xlink"
 version="1.1"
 enable-background="new 426.08 455.195 58.217 62.194">
 <defs>
  <style type="text/css">
   <![CDATA[
    .fil0 {fill:#1B5B55}
   ]]>
   .anim {
          animation: slide 900ms infinite;
          transform-origin: center
        }

        @keyframes slide {
          from {
            transform: translateY(-235px);
            transform: scale(0.7);
          }
          50% {
            transform: translateY(-5px);
            transform: scale(1);
          }
          to {
            transform: translateY(-235px);

            transform: scale(0.7);

          }
        }
  </style>
 </defs>
 <g id="Слой_x0020_1" class="anim">
  <metadata id="CorelCorpID_0Corel-Layer"/>
  <path class="fil0" d="M918.329 643.789c125.399,-108.592 214.174,-185.423 319.17,-276.383 101.099,86.2556 195.402,166.682 312.421,266.529 -278.885,150.048 -248.882,376.753 -187.481,616.463 116.813,455.975 62.7464,897.994 -125.068,1360.18 -168.488,-456.228 -240.043,-885.416 -123.513,-1339.22 57.9151,-225.675 135.126,-474.668 -195.529,-627.568z"/>
  <path class="fil0" d="M35.5892 1195.4c241.596,-201.137 460.586,-383.501 689.983,-574.5 22.209,56.3798 34.6125,82.7871 32.7277,83.8323 -293.855,165.858 -286.806,391.058 -179.846,679.749 185.882,501.582 334.884,1016.82 462.011,1544.13 -329.705,-568.685 -659.425,-1137.36 -1004.88,-1733.21z"/>
  <path class="fil0" d="M2444.43 1194.4c-348.888,599.861 -705.776,1163.64 -1038.44,1735.63 -10.7726,-4.9104 10.7715,4.91158 0,0 159.648,-501.613 303.455,-1012.37 473.796,-1510.35 96.5216,-282.197 212.717,-551.878 -200.771,-722.077 30.478,-21.243 60.9407,-42.5025 91.4199,-63.7454 218.862,182.064 437.773,364.096 673.998,560.544z"/>
 </g>
</svg>
