<svg xmlns="http://www.w3.org/2000/svg" viewBox="19.445 1.14 810 548" enable-background="new 19.445 1.14 810 548"><g enable-background="new    "><path d="m24.986 62.46c10.932-1.86 26.28-3.256 47.917-3.256 21.865 0 37.449 4.187 47.917 12.561 10 7.908 16.748 20.935 16.748 36.29s-5.117 28.378-14.421 37.22c-12.1 11.398-30.01 16.515-50.94 16.515-4.652 0-8.839-.232-12.1-.697v56.06h-35.12v-154.68m35.12 71.18c3.02.697 6.746.93 11.863.93 18.841 0 30.472-9.536 30.472-25.586 0-14.422-10-23.03-27.68-23.03-7.211 0-12.1.698-14.654 1.395v46.29"/><path d="m160.13 62.46c11.398-1.86 28.377-3.256 47.22-3.256 23.26 0 39.543 3.489 50.708 12.328 9.304 7.443 14.421 18.375 14.421 32.797 0 20-14.189 33.727-27.68 38.612v.698c10.933 4.419 16.981 14.887 20.935 29.31 4.885 17.679 9.769 38.15 12.793 44.2h-36.29c-2.559-4.42-6.28-17.213-10.932-36.519-4.187-19.539-10.933-24.89-25.354-25.12h-10.7v61.64h-35.12v-154.68m35.12 67.46h13.957c17.678 0 28.15-8.839 28.15-22.563 0-14.422-9.769-21.633-26.05-21.865-8.606 0-13.491.697-16.05 1.163v43.26"/><path d="m333.65 60.37v156.78h-35.589v-156.78h35.589"/><path d="m364.35 217.15v-156.78h41.4l32.565 57.45c9.305 16.515 18.608 36.05 25.587 53.731h.697c-2.326-20.701-3.02-41.868-3.02-65.36v-45.823h32.565v156.78h-37.22l-33.495-60.48c-9.305-16.747-19.539-36.984-27.21-55.36l-.697.232c.93 20.702 1.396 42.799 1.396 68.39v47.22h-32.566"/><path d="m555.09 90.14h-42.1v-29.773h120.49v29.773h-42.8v127h-35.588v-127"/><path d="m24.986 339.5h35.588v127h62.34v29.773h-97.93v-156.78"/><path d="m171.99 339.5v90.25c0 26.982 10.234 40.706 28.378 40.706 18.608 0 28.843-13.03 28.843-40.706v-90.25h35.36v87.92c0 48.38-24.423 71.41-65.36 71.41-39.543 0-62.804-21.865-62.804-71.875v-87.46h35.589"/><path d="m377.85 496.27l-14.188-28.378c-5.815-10.933-9.537-19.07-13.956-28.15h-.466c-3.256 9.07-7.21 17.213-12.09 28.15l-13.03 28.378h-40.473l45.36-79.32-43.73-77.46h40.706l13.724 28.61c4.651 9.536 8.141 17.213 11.862 26.05h.466c3.722-10 6.745-16.981 10.699-26.05l13.259-28.61h40.474l-44.2 76.53 46.52 80.25h-40.938"/></g><path d="m765.44 264.25v-136.8h-51.584v-67.53h110.77v204.33"/><path d="m824.62 292.37v204.33h-110.77v-67.53h51.584v-136.8"/></svg>