<svg xmlns="http://www.w3.org/2000/svg" height="590.98" viewBox="0 0 600.739 590.976" enable-background="new 0 0 600.739 590.976"><path fill="#fff" d="m52.959 590.98c-4.168 0-8.336 0-12.504 0-1.55-.26-3.105-.489-4.648-.784-9.07-1.734-18.17-3.313-27.18-5.307-3.791-.839-4.491-2.804-2.926-6.537.791-1.887 1.848-3.767 3.189-5.297 2.818-3.215 5.731-6.387 8.906-9.242 14.833-13.339 30.536-25.739 43.548-41.02 13.915-16.345 24.328-34.432 28.773-55.692.601-2.875-.028-4.506-2.053-6.324-24.273-21.791-44.28-46.942-59.4-75.902-17.257-33.06-26.914-68.13-27.984-105.49-.059-2.057-.448-4.104-.684-6.156 0-1.471 0-2.942 0-4.413.254-2.666.665-5.328.737-7.998.454-16.798 2.992-33.3 7.169-49.544 13.55-52.694 41.705-96.45 82.42-132.06 54.08-47.3 117.83-71.51 189.07-76.37 15.698-1.071 31.573-.132 47.34.532 19.808.834 39.25 4.483 58.38 9.601 58.98 15.782 109.91 45.11 150.59 91.04 38.932 43.959 61.2 95.05 64.64 154.06 1.45 24.894-.963 49.35-7.21 73.37-15.01 57.724-47.25 104.32-93.72 141.03-57.19 45.18-123.06 66.2-195.49 67.58-19.954.379-39.831-1.306-59.48-5.01-4.612-.869-8.634-.411-12.974 1.683-29.25 14.12-59.3 26.331-90.26 36.18-24.54 7.809-49.4 14.307-75.17 16.633-4.365.394-8.716.95-13.07 1.431m173.31-305.31c-.448 4.895-.74 9.269-1.267 13.615-1.676 13.816-6.258 26.557-14.397 37.921-6.965 9.726-15.916 17.245-26.26 23.12-2.547 1.446-3.562 3.237-3.523 6.187.144 10.908.046 21.82.065 32.73.008 4.602.792 5.532 5.451 4.937 5.307-.679 10.61-1.639 15.8-2.937 30.858-7.715 53.53-25.421 66.17-55.02 7.987-18.704 10.955-38.494 11.166-58.63.336-32.12.107-64.24.111-96.35.001-5.127-.518-5.629-5.726-5.629-29.05-.003-58.11-.003-87.16 0-5.362.001-5.81.451-5.811 5.913-.004 28.931-.002 57.862-.002 86.79 0 6.842.488 7.355 7.222 7.361 12.488.011 24.975.003 38.17.003m163.3.006c-.214 3.879-.33 7.177-.602 10.461-.171 2.063-.534 4.115-.884 6.159-4.395 25.674-17.715 45.16-40.43 58.06-2.574 1.461-3.525 3.302-3.492 6.212.123 10.781.041 21.564.054 32.35.006 4.99 1.522 6.449 6.213 5.129 9.602-2.701 19.344-5.137 28.614-8.745 26.824-10.439 45.834-28.902 55.55-56.34 5.512-15.572 7.898-31.782 8.099-48.16.412-33.567.15-67.14.207-100.71.006-3.269-1.367-4.528-4.668-4.52-29.773.073-59.55.078-89.32-.004-3.588-.01-4.744 1.577-4.74 4.885.037 30.02.011 60.04.033 90.06.003 3.955 1.257 5.152 5.373 5.165 11.885.036 23.77.016 35.655.017 1.325 0 2.648 0 4.341 0"/></svg>